<svg id="&#x421;&#x43B;&#x43E;&#x439;_1" viewBox="0 0 1962 2065" xmlns="http://www.w3.org/2000/svg"><g stroke="#5e1235" stroke-linecap="round" stroke-linejoin="round" stroke-width="65" transform="translate(-769 -717.5)"><g fill="#fff"><path d="m1445.67 2063.35h-136.83v-527.41l-163.34 50.66v-111.26l285.5-102.26h14.68z"/><path d="m2048.9 1557.25q0 50.19-25.09 89t-69.12 62q50.18 24.15 79.54 66.52t29.35 99.66q0 91.85-62.49 145.11t-170 53.26q-107.48 0-170.44-53.5t-63-144.87q0-57.28 29.35-99.9t79.06-66.28q-44-23.19-68.89-62t-24.86-89q0-88.06 58.71-140.37t159.55-52.31q100.37 0 159.31 51.84t59.02 140.84zm-122.62 307.26q0-45-26-72t-70.07-27q-43.56 0-69.6 26.75t-26 72.2q0 44 25.57 71t71 27q44.5 0 69.83-26t25.27-71.95zm-14.2-300.63q0-40.24-21.3-64.62t-60.13-24.38q-38.35 0-59.65 23.67t-21.3 65.33q0 41.19 21.3 66.28t60.13 25.09q38.82 0 59.89-25.09t21.05-66.28z"/><path d="m2527.59 1677.5h170.91v123.57h-170.91v193.16h-130.19v-193.16h-171.4v-123.57h171.4v-185.12h130.2z"/></g><path d="m1801.5 2598c-468.34 0-848-379.66-848-848s379.66-848 848-848c306.18 0 574.45 162.27 723.52 405.5h173.48c-163.26-330.32-503.6-557.5-897-557.5-552.29 0-1000 447.72-1000 1000s447.71 1000 1000 1000c393.41 0 733.74-227.18 897-557.5h-173.5c-149.06 243.23-417.32 405.5-723.5 405.5z" fill="#ff555e"/></g></svg>