<svg id="Layer_1" enable-background="new 0 0 509.988 509.988" height="512" viewBox="0 0 509.988 509.988" width="512" xmlns="http://www.w3.org/2000/svg"><g><g><path d="m455.96 271.84c0 123.987-100.512 224.499-224.499 224.499-297.473-11.006-297.392-438.037.003-448.999 123.985.001 224.496 100.512 224.496 224.5z" fill="#ff5477"/><path d="m231.461 47.341c-3.352 0-6.684.087-10 .233 284.105 20.923 283.896 427.711 0 448.532 304.319.972 313.898-436.237 10-448.765z" fill="#ff0f43"/><path d="m342.279 251.218c40.671-40.139 11.8-111.154-45.98-111.025-57.777-.13-86.651 70.897-45.978 111.025-67.622 44.891-36.303 151.918 45.981 152.268 82.285-.352 113.598-107.393 45.977-152.268zm-78.031-45.974c0-17.673 14.378-32.051 32.052-32.051 42.463 1.611 42.451 62.498 0 64.103-17.673-.001-32.052-14.379-32.052-32.052zm32.052 165.243c-27.623 0-50.096-22.473-50.096-50.096 2.518-66.368 97.683-66.349 100.191.001.001 27.622-22.472 50.095-50.095 50.095z" fill="#fff"/><path d="m103.527 179.193h32.723v215.794h33v-248.794h-65.723z" fill="#fff"/><path d="m349.831 90.167c0-42.155 34.173-76.329 76.329-76.329 101.139 3.742 101.112 148.93-.001 152.657-42.155.001-76.328-34.173-76.328-76.328z" fill="#ff5477"/><path d="m426.16 13.839c-3.392 0-6.725.244-10 .673 87.893 13.34 87.831 138.004 0 151.311 45.228 6.323 86.686-29.947 86.328-75.655 0-42.156-34.173-76.329-76.328-76.329z" fill="#ff0f43"/></g><g><path d="m341.717 458.783c-82.655 50.114-196.251 36.057-263.697-33.503-102.018-98.331-76.32-277.313 48.802-343.591l-7.244-13.135c-133.766 70.899-161.237 262.182-52.162 367.334 105.199 107.949 291.81 82.769 365.284-48.533l-13.002-7.479c-18.708 32.524-45.674 59.81-77.981 78.907z"/><path d="m176.75 402.487v-263.794h-80.724v48h32.724v215.794zm-65.724-230.794v-18h50.724v233.794h-18v-215.794z"/><path d="m296.3 377.987c31.758 0 57.596-25.837 57.596-57.596-2.895-76.304-112.308-76.283-115.191.001-.001 31.758 25.836 57.595 57.595 57.595zm0-100.191c23.487 0 42.596 19.108 42.596 42.596-2.142 56.431-83.059 56.416-85.191-.001-.001-23.487 19.107-42.595 42.595-42.595z"/><path d="m296.3 244.796c21.809 0 39.552-17.743 39.552-39.552-1.988-52.397-77.123-52.383-79.104.001 0 21.807 17.743 39.551 39.552 39.551zm0-64.103c13.538 0 24.552 11.014 24.552 24.551-1.234 32.527-47.874 32.518-49.104 0 0-13.537 11.014-24.551 24.552-24.551z"/><path d="m205.704 320.391c0 49.955 40.641 90.596 90.596 90.596 84.862-.061 122.879-107.688 57.035-160.932 37.432-46.588 2.837-117.87-57.036-117.362-59.867-.51-94.471 70.783-57.034 117.362-21.158 17.157-33.561 42.87-33.561 70.336zm49.92-74.475c-36.186-35.566-10.041-98.548 40.676-98.222 50.713-.326 76.864 62.666 40.675 98.222l-6.467 6.468 7.609 5.074c61.888 41.378 32.592 138.249-41.82 138.529-74.413-.282-103.704-97.163-41.817-138.529l7.61-5.074z"/><path d="m509.988 90.168c0-13.503-3.289-26.926-9.511-38.815l-13.29 6.955c24.142 44.771-10.099 101.332-61.029 100.688-37.951.001-68.828-30.875-68.828-68.828.036-64.343 81.615-93.365 122.19-43.478l11.622-9.482c-43.03-53.586-130.122-33.265-146.216 32.239-63.688-36.289-145.345-39.425-211.594-7.891l6.352 13.59c63.691-30.331 142.485-26.309 202.795 10.206-2.911 47.467 35.247 88.226 82.685 88.619 30.411 59.384 31.102 133.41 1.313 193.155l13.473 6.596c30.93-62.09 31.19-138.569 1.245-201.103 39.069-7.109 68.793-41.363 68.793-82.451z"/><path d="m433.66 134.889v-37.221h36.171v-15h-36.171v-36.172h-15v36.172h-37.223v15h37.223v37.221z"/></g></g></svg>