<svg width="100" height="120" viewBox="0 0 100 120" fill="none" xmlns="http://www.w3.org/2000/svg">
  <rect x="5" y="5" width="90" height="110" rx="5" fill="white" stroke="#333333" stroke-width="2"/>
  <path d="M50 25C50 25 40 35 30 45C20 55 20 65 30 70C40 75 50 65 50 65L50 75C50 75 45 80 40 80C35 80 35 85 50 85C65 85 65 80 60 80C55 80 50 75 50 75L50 65C50 65 60 75 70 70C80 65 80 55 70 45C60 35 50 25 50 25Z" fill="#333333"/>
  <text x="10" y="20" font-family="Arial" font-size="14" fill="#333333">A</text>
  <text x="85" y="115" font-family="Arial" font-size="14" fill="#333333">A</text>
</svg> 