<svg id="svg8" height="512" viewBox="0 0 111 111" width="512" xmlns="http://www.w3.org/2000/svg" xmlns:svg="http://www.w3.org/2000/svg"><g id="layer1"><g id="g861"><path id="path887" d="m50.303576 5.6596299c-.769725.018426-1.428006.2125176-1.900757.6878134-.472753.4752959-.60304 1.310339-.299157 1.8948246.303881.5844856.871181.9378939 1.540286 1.1105885l.01681.00544.01681.00346c2.454553.541062 5.745945 3.1841846 9.003879 7.0927356 3.257935 3.908552 6.534931 9.026309 9.327759 14.339747 2.792827 5.313436 5.105666 10.829714 6.460797 15.521046 1.355129 4.691327 1.634883 8.597087.853955 10.342419l-.911809 2.037231 5.221646-1.848343.175538-.323385c.633279-1.169763.692574-2.673501.502881-4.49477-.189693-1.821268-.675884-3.969055-1.392438-6.346576-1.433108-4.755034-3.795341-10.422258-6.625455-15.973487-2.830117-5.551227-6.12484-10.979218-9.450883-15.244139-3.310837-4.245423-6.581904-7.3846493-9.809375-8.2587058-1.070158-.3912965-1.972731-.5640372-2.730487-.5458993z" fill="#1a1c20" font-variant-ligatures="normal" font-variant-position="normal" font-variant-caps="normal" font-variant-numeric="normal" font-variant-alternates="normal" font-variant-east-asian="normal" font-feature-settings="normal" font-variation-settings="normal" text-indent="0" text-align="start" text-decoration-line="none" text-decoration-style="solid" text-decoration-color="#000000" text-transform="none" text-orientation="mixed" white-space="normal" shape-padding="0" shape-margin="0" inline-size="0" isolation="auto" mix-blend-mode="normal" solid-color="#000000" solid-opacity="1" vector-effect="none"/><path id="path851-7" d="m64.703393 50.959662c-2.779953.751818-5.653818 2.871023-8.324535 7.684995-5.044969 11.778252 1.792736 24.17057 7.767187 31.111543 7.715804 8.964042 19.565347 9.819508 25.598535 8.202932 6.033219-1.616602 15.8683-8.282447 18.06836-19.903443 1.70354-8.998301 1.429-23.149184-8.829221-30.826975-13.730529-8.243466-17.549615 4.119871-21.448476 5.164565-2.558599.685578-7.524388-2.867718-12.83185-1.433617z" fill="#f5004c"/><path id="path1004" d="m100.67159 53.000271a4.7843283 4.7843283 0 0 0 -1.551173.24856 4.7843283 4.7843283 0 0 0 -3.014497 6.057034c2.757722 8.221264 3.127197 14.558003 1.663301 19.270004-1.463895 4.712003-4.653376 8.33099-10.908641 11.441274a4.7843283 4.7843283 0 0 0 -2.154817 6.41399 4.7843283 4.7843283 0 0 0 6.41399 2.152947c7.905791-3.93097 13.490537-9.779389 15.786417-17.169384s1.41154-15.789699-1.72872-25.151364a4.7843283 4.7843283 0 0 0 -4.50586-3.263061z" fill="#c2003c" font-variant-ligatures="normal" font-variant-position="normal" font-variant-caps="normal" font-variant-numeric="normal" font-variant-alternates="normal" font-variant-east-asian="normal" font-feature-settings="normal" font-variation-settings="normal" text-indent="0" text-align="start" text-decoration-line="none" text-decoration-style="solid" text-decoration-color="#000000" text-transform="none" text-orientation="mixed" white-space="normal" shape-padding="0" shape-margin="0" inline-size="0" isolation="auto" mix-blend-mode="normal" solid-color="#000000" solid-opacity="1" vector-effect="none"/><path id="path1008" d="m90.372202 42.018742c-2.887479.01984-5.302199 1.052466-7.16341 2.343573-1.861212 1.291108-3.243811 2.822366-4.341405 3.975105s-2.021471 1.764385-1.951109 1.745532c.09241-.02476-1.774668-.333094-4.120877-.990506-2.346208-.657411-5.401053-1.338759-8.716448-.442924-3.472466.939105-6.91165 3.644059-9.791053 8.834188l-.0598.106526-.04859.112132c-2.796046 6.527798-2.275888 13.24091-.317709 19.073772 1.958178 5.832862 5.319564 10.877884 8.471625 14.539873 4.228347 4.912396 9.601195 7.605659 14.680039 8.834187 5.078843 1.22853 9.85272 1.05653 13.349397.11961 3.496685-.936945 7.718594-3.175019 11.502938-6.778423 3.78434-3.603404 7.09216-8.621783 8.29782-14.990273.89877-4.747412 1.28602-10.798757.0654-16.829248-1.2206-6.030491-4.12625-12.103071-9.81161-16.358291l-.0972-.07288-.10465-.06354c-3.700765-2.221894-6.955841-3.178259-9.843319-3.158415zm.03177 4.784328c1.787368-.01229 4.134618.583428 7.234428 2.422066 4.50841 3.418162 6.85388 8.219665 7.90162 13.39612 1.05534 5.21397.72815 10.739387-.0767 14.990273-.99439 5.25251-3.70464 9.37604-6.896153 12.414958-3.191519 3.038918-6.905052 4.941922-9.441578 5.621585-2.536463.679653-6.703909.888426-10.987087-.147641-4.283155-1.036066-8.692003-3.253801-12.179457-7.305445-2.822388-3.278981-5.868437-7.898879-7.561482-12.941982-1.682036-5.010314-2.052804-10.346137.147642-15.564018 2.433545-4.333197 4.716201-5.860873 6.782159-6.419597 1.99207-.538267 4.073441-.159478 6.176643.429843 2.103201.58932 3.998455 1.715793 6.649468 1.005456 2.019789-.541201 3.034696-1.867099 4.178812-3.068698 1.144117-1.2016 2.305964-2.443543 3.603198-3.343423 1.297233-.899881 2.656337-1.477042 4.468487-1.489497z" fill="#1a1c20" font-variant-ligatures="normal" font-variant-position="normal" font-variant-caps="normal" font-variant-numeric="normal" font-variant-alternates="normal" font-variant-east-asian="normal" font-feature-settings="normal" font-variation-settings="normal" text-indent="0" text-align="start" text-decoration-line="none" text-decoration-style="solid" text-decoration-color="#000000" text-transform="none" text-orientation="mixed" white-space="normal" shape-padding="0" shape-margin="0" inline-size="0" isolation="auto" mix-blend-mode="normal" solid-color="#000000" solid-opacity="1" vector-effect="none"/><path id="path893" d="m50.307037 5.9103282c-.67037.0018-1.352749.5002182-1.551164 1.1283897-.198415.6281717-.0479 1.2793088.303111 1.8745511l.0094.01335.0094.014833c1.35298 2.118221 1.810958 6.315815 1.350904 11.383287-.460054 5.067473-1.76106 11.001996-3.5434 16.733991-1.782342 5.731995-4.049336 11.267803-6.408383 15.543297-2.35905 4.275491-4.921206 7.236571-6.707541 7.918506l-2.087174.796103 5.001108 2.384848.351077-.106312c1.274943-.379346 2.380309-1.400492 3.534008-2.822456 1.153696-1.421966 2.329856-3.284011 3.504336-5.471852 2.348958-4.375681 4.68601-10.052424 6.61013-15.978927 1.924117-5.926506 3.43283-12.095223 4.096717-17.462845.661003-5.344318.566011-9.87757-1.099217-12.7777036-.479578-1.0315703-.99575-1.7912533-1.543763-2.3136442-.557305-.5312499-1.159183-.8592184-1.829554-.8574181z" fill="#1a1c20" font-variant-ligatures="normal" font-variant-position="normal" font-variant-caps="normal" font-variant-numeric="normal" font-variant-alternates="normal" font-variant-east-asian="normal" font-feature-settings="normal" font-variation-settings="normal" text-indent="0" text-align="start" text-decoration-line="none" text-decoration-style="solid" text-decoration-color="#000000" text-transform="none" text-orientation="mixed" white-space="normal" shape-padding="0" shape-margin="0" inline-size="0" isolation="auto" mix-blend-mode="normal" solid-color="#000000" solid-opacity="1" vector-effect="none"/><path id="path851-7-5" d="m30.287453 48.981181c-2.49734-1.434101-6.027973-1.967731-11.320448-.452222-11.8958136 4.761152-15.8235172 18.358829-16.5069516 27.491412-.8826358 11.794433 6.8913499 20.778234 12.3005506 23.901244 5.409235 3.123025 17.077154 5.364015 26.850113-1.297596 7.567343-5.158173 17.379404-15.358482 15.554766-28.041161-3.879939-15.537958-15.322642-9.496267-18.818266-11.514468-2.293976-1.324418-3.292759-7.348324-8.059764-10.087209z" fill="#db0044"/><path id="path1012" d="m52.516204 68.356844a4.7843283 4.7843283 0 0 0 -4.662852 4.143303c-1.734169 12.860219-10.776833 20.269695-21.735054 21.938761a4.7843283 4.7843283 0 0 0 -4.010612 5.449648 4.7843283 4.7843283 0 0 0 5.451517 4.008744c14.587094-2.22179 27.495205-13.196883 29.776837-30.116972a4.7843283 4.7843283 0 0 0 -4.102187-5.3805 4.7843283 4.7843283 0 0 0 -.717649-.04298z" fill="#a80034" font-variant-ligatures="normal" font-variant-position="normal" font-variant-caps="normal" font-variant-numeric="normal" font-variant-alternates="normal" font-variant-east-asian="normal" font-feature-settings="normal" font-variation-settings="normal" text-indent="0" text-align="start" text-decoration-line="none" text-decoration-style="solid" text-decoration-color="#000000" text-transform="none" text-orientation="mixed" white-space="normal" shape-padding="0" shape-margin="0" inline-size="0" isolation="auto" mix-blend-mode="normal" solid-color="#000000" solid-opacity="1" vector-effect="none"/><path id="path1016" d="m25.864131 45.283673c-2.189376-.149698-4.702861.128686-7.555875.945652l-.117739.03364-.112134.04485c-6.592951 2.63875-10.9721446 7.752465-13.7119591 13.261562-2.7398145 5.509096-3.93037253 11.45406-4.29094449 16.272322-.48369761 6.463484 1.41137769 12.167423 4.13395869 16.627411 2.7225811 4.459988 6.2205729 7.71379 9.3556039 9.5238 3.135049 1.81003 7.701236 3.21174 12.925163 3.33969s11.112822-1.08133 16.468555-4.732c3.99246-2.721405 8.542895-6.725129 11.944001-11.852427 3.401106-5.127297 5.642339-11.476583 4.63108-18.505632l-.01869-.121477-.02804-.11774c-1.04577-4.187988-2.672476-7.167156-4.728262-9.194881-2.055788-2.027725-4.491461-3.003839-6.720487-3.406965s-4.288265-.298766-5.879491-.259774c-1.591226.03899-2.679511-.182193-2.616429-.145773.08286.04784-1.018591-1.488663-2.212752-3.612542-1.194161-2.123878-2.871803-4.76477-5.849589-6.475663h-.0019v-.0019c-1.559677-.895628-3.424688-1.472443-5.614063-1.62214zm-.377514 4.73013c1.523393.09676 2.671185.502537 3.608804 1.040966 1.789223 1.028001 2.994333 2.768295 4.06481 4.672195 1.070478 1.9039 1.613216 4.040011 3.990056 5.412271 1.810892 1.045522 3.46579.827442 5.124464.786799 1.658673-.04065 3.357817-.09782 4.911412.183149 1.553594.280972 2.924129.833648 4.21432 2.106226 1.272919 1.255544 2.509522 3.336875 3.401359 6.83075.769383 5.603157-.966728 10.657545-3.885398 15.057552-2.9406 4.433067-7.077714 8.107439-10.652607 10.544211-4.417224 3.010948-9.250314 4.010118-13.655893 3.902218s-8.376548-1.38752-10.650737-2.700531c-2.274168-1.312991-5.368217-4.11231-7.6642698-7.873582-2.2960527-3.761272-3.8470245-8.446421-3.4480805-13.777371.3228598-4.31432 1.4361879-9.735583 3.8050362-14.498757 2.3540071-4.733332 5.8665921-8.767917 11.1142191-10.901166 2.365653-.663769 4.231291-.879648 5.722505-.78493z" fill="#1a1c20" font-variant-ligatures="normal" font-variant-position="normal" font-variant-caps="normal" font-variant-numeric="normal" font-variant-alternates="normal" font-variant-east-asian="normal" font-feature-settings="normal" font-variation-settings="normal" text-indent="0" text-align="start" text-decoration-line="none" text-decoration-style="solid" text-decoration-color="#000000" text-transform="none" text-orientation="mixed" white-space="normal" shape-padding="0" shape-margin="0" inline-size="0" isolation="auto" mix-blend-mode="normal" solid-color="#000000" solid-opacity="1" vector-effect="none"/><g fill="#fff"><path id="path1020" d="m23.728003 51.170639c-3.932425.244803-7.420089 2.353986-10.000368 5.199219-3.440371 3.793645-5.6652236 8.88737-6.6326488 13.682058a2.3921594 2.3921594 0 0 0 1.8707472 2.8164 2.3921594 2.3921594 0 0 0 2.8182686-1.870748c.808441-4.00674 2.820152-8.472517 5.487026-11.413239 2.666875-2.940722 5.587982-4.367594 9.277112-3.375195a2.3921594 2.3921594 0 0 0 2.93227-1.687597 2.3921594 2.3921594 0 0 0 -1.689466-2.93227c-1.39212-.374488-2.752133-.500229-4.062941-.418628z" font-variant-ligatures="normal" font-variant-position="normal" font-variant-caps="normal" font-variant-numeric="normal" font-variant-alternates="normal" font-variant-east-asian="normal" font-feature-settings="normal" font-variation-settings="normal" text-indent="0" text-align="start" text-decoration-line="none" text-decoration-style="solid" text-decoration-color="#000000" text-transform="none" text-orientation="mixed" white-space="normal" shape-padding="0" shape-margin="0" inline-size="0" isolation="auto" mix-blend-mode="normal" solid-color="#000000" solid-opacity="1" vector-effect="none"/><path id="path1024" d="m66.777613 53.981431a2.3921594 2.3921594 0 0 0 -.568139.08784c-2.15605.605307-3.752312 2.071644-4.984298 3.659264s-2.108534 3.342825-2.565969 5.021676a2.3921594 2.3921594 0 0 0 1.678252 2.937876 2.3921594 2.3921594 0 0 0 2.937876-1.680121c.254111-.932621.903307-2.28162 1.728713-3.345293s1.818914-1.795771 2.49869-1.986617a2.3921594 2.3921594 0 0 0 1.655827-2.94909 2.3921594 2.3921594 0 0 0 -2.380952-1.745533z" font-variant-ligatures="normal" font-variant-position="normal" font-variant-caps="normal" font-variant-numeric="normal" font-variant-alternates="normal" font-variant-east-asian="normal" font-feature-settings="normal" font-variation-settings="normal" text-indent="0" text-align="start" text-decoration-line="none" text-decoration-style="solid" text-decoration-color="#000000" text-transform="none" text-orientation="mixed" white-space="normal" shape-padding="0" shape-margin="0" inline-size="0" isolation="auto" mix-blend-mode="normal" solid-color="#000000" solid-opacity="1" vector-effect="none"/></g></g></g></svg>