<svg height="512" viewBox="0 0 60 60" width="512" xmlns="http://www.w3.org/2000/svg"><g id="Page-1" fill="none" fill-rule="evenodd"><g id="049---Small-Slot-Machine" fill-rule="nonzero"><g id="Icons" transform="translate(1 1)"><path id="Shape" d="m15 9h32c1.6568542 0 3 1.3431458 3 3v26c0 1.6568542-1.3431458 3-3 3h-42c-1.65685425 0-3-1.3431458-3-3v-26c0-1.6568542 1.34314575-3 3-3z" fill="#ffdb00"/><path id="Shape" d="m47 9h-3c1.6568542 0 3 1.3431458 3 3v26c0 1.6568542-1.3431458 3-3 3h3c1.6568542 0 3-1.3431458 3-3v-26c0-1.6568542-1.3431458-3-3-3z" fill="#fdc008"/><path id="Shape" d="m5 9c2.407-5.176 10.9-9 21-9s18.593 3.824 21 9z" fill="#f34335"/><path id="Shape" d="m26 0c-.5 0-1 .017-1.5.035 9.434.358 17.213 4.048 19.5 8.965h3c-2.407-5.176-10.9-9-21-9z" fill="#c71e1e"/><path id="Shape" d="m52 49.52v2.48c-.0032948 1.1032019-.8967981 1.9967052-2 2h-48c-1.10320187-.0032948-1.9967052-.8967981-2-2v-2.48c-.00200452-.1758106.02157569-.3509779.07-.52h51.86c.0484243.1690221.0720045.3441894.07.52z" fill="#ffdb00"/><path id="Shape" d="m51.93 49h-3c.0484243.1690221.0720045.3441894.07.52v2.48c-.0032948 1.1032019-.8967981 1.9967052-2 2h3c1.1032019-.0032948 1.9967052-.8967981 2-2v-2.48c.0020045-.1758106-.0215757-.3509779-.07-.52z" fill="#fdc008"/><path id="Shape" d="m51.93 49h-51.86c.03902173-.1575635.09959266-.3089908.18-.45l4.75-7.55h42l4.75 7.55c.0804073.1410092.1409783.2924365.18.45z" fill="#ff9701"/><path id="Shape" d="m51.75 48.55-4.75-7.55h-3l4.75 7.55c.0804073.1410092.1409783.2924365.18.45h3c-.0390217-.1575635-.0995927-.3089908-.18-.45z" fill="#f47c00"/><path id="Shape" d="m8.764 58h-4.764c-1.1045695 0-2-.8954305-2-2v-2h10l-1.447 2.894c-.3386882.677781-1.0313083 1.1059743-1.789 1.106z" fill="#ff5722"/><path id="Shape" d="m43.236 58h4.764c1.1045695 0 2-.8954305 2-2v-2h-10l1.447 2.894c.3386882.677781 1.0313083 1.1059743 1.789 1.106z" fill="#ff5722"/><circle id="Oval" cx="55" cy="3" fill="#f34335" r="3"/><path id="Shape" d="m50 21h5v7c0 1.1045695-.8954305 2-2 2h-3z" fill="#7f8d93"/><rect id="Rectangle-path" fill="#f4f4f4" height="24" rx="2" width="40" x="6" y="13"/><g fill="#ced7db"><path id="Shape" d="m44 13h-3c1.1045695 0 2 .8954305 2 2v20c0 1.1045695-.8954305 2-2 2h3c1.1045695 0 2-.8954305 2-2v-20c0-1.1045695-.8954305-2-2-2z"/><path id="Rectangle-path" d="m19 13h14v24h-14z"/></g></g><g id="Icons_copy" fill="#000"><path id="Shape" d="m11 47h4c.5522847 0 1-.4477153 1-1s-.4477153-1-1-1h-4c-.5522847 0-1 .4477153-1 1s.4477153 1 1 1z"/><path id="Shape" d="m21 47h4c.5522847 0 1-.4477153 1-1s-.4477153-1-1-1h-4c-.5522847 0-1 .4477153-1 1s.4477153 1 1 1z"/><path id="Shape" d="m31 47h4c.5522847 0 1-.4477153 1-1s-.4477153-1-1-1h-4c-.5522847 0-1 .4477153-1 1s.4477153 1 1 1z"/><path id="Shape" d="m41 47h4c.5522847 0 1-.4477153 1-1s-.4477153-1-1-1h-4c-.5522847 0-1 .4477153-1 1s.4477153 1 1 1z"/><path id="Shape" d="m56 0c-2.0117689-.00250479-3.7110655 1.49236838-3.9650329 3.48804392-.2539673 1.99567554 1.0167587 3.86851036 2.9650329 4.36995608v13.142h-3v-8c-.0067285-1.9622751-1.4358909-3.62991368-3.374-3.937-2.92-5.363-11.669-9.063-21.626-9.063s-18.706 3.7-21.626 9.063c-1.9381091.30708632-3.36727153 1.9747249-3.374 3.937v26c.00161343 1.5890146.94364299 3.0263947 2.4 3.662l-4.024 6.4c-.24658323.4460337-.3759536.9473439-.376 1.457v2.481c.00525139 1.2667854.80564914 2.3937454 2 2.816v1.184c0 1.6568542 1.34314575 3 3 3h4.764c1.1371358.0034957 2.1774823-.639402 2.683-1.658l1.171-2.342h26.764l1.171 2.342c.5055177 1.018598 1.5458642 1.6614957 2.683 1.658h4.764c1.6568542 0 3-1.3431458 3-3v-1.184c1.1943509-.4222546 1.9947486-1.5492146 2-2.816v-2.481c-.0033383-.526566-.1428593-1.0433107-.405-1.5l-4-6.353c1.4596436-.6346725 2.4041091-2.0743443 2.405-3.666v-7h2c1.6568542 0 3-1.3431458 3-3v-21.142c1.9482742-.50144572 3.2190002-2.37428054 2.9650329-4.36995608-.2539674-1.99567554-1.953264-3.49054871-3.9650329-3.48804392zm-49.447 43h40.9l3.776 6h-48.451zm4.1 14.447c-.1671966.3382682-.5116674.5525454-.889.553h-4.764c-.55228475 0-1-.4477153-1-1v-1h7.382zm39.347-.447c0 .5522847-.4477153 1-1 1h-4.764c-.3791342.001451-.7260065-.2131132-.894-.553l-.724-1.447h7.382zm1-3h-48c-.55228475 0-1-.4477153-1-1v-2h50v2c0 .5522847-.4477153 1-1 1zm-1-15c0 1.1045695-.8954305 2-2 2h-42c-1.1045695 0-2-.8954305-2-2v-26c0-1.1045695.8954305-2 2-2h6c.5522847 0 1-.4477153 1-1 0-.55228475-.4477153-1-1-1h-4.213c3.113-4.129 10.78-7 19.213-7s16.1 2.871 19.213 7h-30.213c-.5522847 0-1 .44771525-1 1 0 .5522847.4477153 1 1 1h32c1.1045695 0 2 .8954305 2 2zm5-10c0 .5522847-.4477153 1-1 1h-2v-7h3zm1-23c-1.1045695 0-2-.8954305-2-2s.8954305-2 2-2 2 .8954305 2 2c0 .53043298-.2107137 1.03914081-.5857864 1.41421356-.3750728.37507276-.8837806.58578644-1.4142136.58578644z"/><path id="Shape" d="m45 13h-36c-1.65685425 0-3 1.3431458-3 3v20c0 1.6568542 1.34314575 3 3 3h36c1.6568542 0 3-1.3431458 3-3v-20c0-1.6568542-1.3431458-3-3-3zm-12 2v22h-12v-22zm-25 21v-20c0-.5522847.44771525-1 1-1h10v22h-10c-.55228475 0-1-.4477153-1-1zm38 0c0 .5522847-.4477153 1-1 1h-10v-22h10c.5522847 0 1 .4477153 1 1z"/><path id="Shape" d="m16.856 22.993c-.2675055-.6032202-.8651263-.9923594-1.525-.993h-3.331c0-.5522847-.4477153-1-1-1s-1 .4477153-1 1v2c0 .5522847.4477153 1 1 1s1-.4477153 1-1h2.608c-1.099 1.383-2.608 3.83-2.608 6 0 .5522847.4477153 1 1 1s1-.4477153 1-1c0-1.656 1.5-4.051 2.569-5.224.4457534-.4824256.5588535-1.1850651.287-1.783z"/><path id="Shape" d="m12 19h3c.5522847 0 1-.4477153 1-1s-.4477153-1-1-1h-3c-.5522847 0-1 .4477153-1 1s.4477153 1 1 1z"/><path id="Shape" d="m15 33h-3c-.5522847 0-1 .4477153-1 1s.4477153 1 1 1h3c.5522847 0 1-.4477153 1-1s-.4477153-1-1-1z"/><path id="Shape" d="m24 25c.5522847 0 1-.4477153 1-1h2.608c-1.099 1.383-2.608 3.83-2.608 6 0 .5522847.4477153 1 1 1s1-.4477153 1-1c0-1.656 1.5-4.051 2.569-5.224.4457534-.4824256.5588535-1.1850651.287-1.783-.2675055-.6032202-.8651263-.9923594-1.525-.993h-3.331c0-.5522847-.4477153-1-1-1s-1 .4477153-1 1v2c0 .5522847.4477153 1 1 1z"/><path id="Shape" d="m25 19h4c.5522847 0 1-.4477153 1-1s-.4477153-1-1-1h-4c-.5522847 0-1 .4477153-1 1s.4477153 1 1 1z"/><path id="Shape" d="m29 33h-4c-.5522847 0-1 .4477153-1 1s.4477153 1 1 1h4c.5522847 0 1-.4477153 1-1s-.4477153-1-1-1z"/><path id="Shape" d="m42.329 22h-3.329c0-.5522847-.4477153-1-1-1s-1 .4477153-1 1v2c0 .5522847.4477153 1 1 1s1-.4477153 1-1h2.609c-1.102 1.383-2.609 3.83-2.609 6 0 .5522847.4477153 1 1 1s1-.4477153 1-1c0-1.656 1.5-4.051 2.569-5.224.4455911-.4824509.5590376-1.1847953.288-1.783-.268355-.6038664-.8671907-.9930312-1.528-.993z"/><path id="Shape" d="m39 19h3c.5522847 0 1-.4477153 1-1s-.4477153-1-1-1h-3c-.5522847 0-1 .4477153-1 1s.4477153 1 1 1z"/><path id="Shape" d="m42 33h-3c-.5522847 0-1 .4477153-1 1s.4477153 1 1 1h3c.5522847 0 1-.4477153 1-1s-.4477153-1-1-1z"/></g></g></g></svg>