<?xml version="1.0" encoding="UTF-8"?>
<svg xmlns="http://www.w3.org/2000/svg" xmlns:xlink="http://www.w3.org/1999/xlink" version="1.1" id="Capa_1" x="0px" y="0px" viewBox="0 0 512 512" style="enable-background:new 0 0 512 512;" xml:space="preserve" width="512" height="512">
<g>
	<g>
		<ellipse style="fill:#685E68;" cx="256" cy="256" rx="247.543" ry="248.5"/>
		<path style="fill:#554E56;" d="M256,7.5c-5.546,0-11.045,0.202-16.5,0.563C368.519,16.589,470.543,124.325,470.543,256&#10;&#9;&#9;&#9;S368.519,495.411,239.5,503.937c5.455,0.36,10.954,0.563,16.5,0.563c136.714,0,247.543-111.257,247.543-248.5S392.714,7.5,256,7.5&#10;&#9;&#9;&#9;z"/>
		<ellipse style="fill:#FAF7F7;" cx="256" cy="256" rx="213.11" ry="213.972"/>
		<g>
			<path style="fill:#FE646F;" d="M132.503,289.204L50.134,311.35c9.815,36.766,29.151,69.663,55.198,95.832l60.268-60.474&#10;&#9;&#9;&#9;&#9;C149.981,331.004,138.388,311.265,132.503,289.204z"/>
			<path style="fill:#FAF7F7;" d="M128.161,256c0-11.479,1.516-22.608,4.342-33.204L50.134,200.65&#10;&#9;&#9;&#9;&#9;c-4.715,17.663-7.245,36.214-7.245,55.35s2.529,37.687,7.245,55.35l82.369-22.146C129.677,278.608,128.161,267.479,128.161,256z"/>
			<path style="fill:#FE646F;" d="M165.6,165.291l-60.268-60.474c-26.048,26.169-45.383,59.066-55.198,95.832l82.369,22.146&#10;&#9;&#9;&#9;&#9;C138.388,200.735,149.981,180.996,165.6,165.291z"/>
			<path style="fill:#FAF7F7;" d="M165.6,346.709l-60.268,60.474c26.064,26.185,58.84,45.626,95.476,55.498l22.071-82.651&#10;&#9;&#9;&#9;&#9;C200.899,374.102,181.235,362.429,165.6,346.709z"/>
			<path style="fill:#FAF7F7;" d="M222.879,131.97l-22.071-82.651c-36.636,9.872-69.412,29.313-95.476,55.498l60.268,60.474&#10;&#9;&#9;&#9;&#9;C181.235,149.57,200.899,137.898,222.879,131.97z"/>
			<path style="fill:#FE646F;" d="M256,127.591c11.451,0,22.552,1.529,33.121,4.379l22.071-82.651&#10;&#9;&#9;&#9;&#9;c-17.611-4.745-36.109-7.291-55.191-7.291s-37.58,2.546-55.191,7.291l22.071,82.651C233.448,129.12,244.549,127.591,256,127.591z&#10;&#9;&#9;&#9;&#9;"/>
			<path style="fill:#FE646F;" d="M379.497,222.796l82.369-22.146c-9.815-36.766-29.151-69.663-55.198-95.832L346.4,165.291&#10;&#9;&#9;&#9;&#9;C362.019,180.996,373.612,200.735,379.497,222.796z"/>
			<path style="fill:#FAF7F7;" d="M461.866,200.65l-82.369,22.146c2.826,10.596,4.342,21.725,4.342,33.204&#10;&#9;&#9;&#9;&#9;c0,11.479-1.516,22.608-4.342,33.204l82.369,22.146c4.715-17.663,7.245-36.214,7.245-55.35S466.581,218.313,461.866,200.65z"/>
			<path style="fill:#FE646F;" d="M256,384.409c-11.451,0-22.552-1.529-33.12-4.379l-22.071,82.651&#10;&#9;&#9;&#9;&#9;c17.611,4.745,36.109,7.291,55.191,7.291s37.58-2.546,55.191-7.291L289.12,380.03C278.552,382.88,267.451,384.409,256,384.409z"/>
			<path style="fill:#FAF7F7;" d="M346.4,165.291l60.268-60.474c-26.064-26.185-58.84-45.626-95.476-55.498l-22.071,82.651&#10;&#9;&#9;&#9;&#9;C311.101,137.898,330.765,149.57,346.4,165.291z"/>
			<path style="fill:#FE646F;" d="M346.4,346.709l60.268,60.474c26.048-26.169,45.383-59.066,55.198-95.832l-82.369-22.146&#10;&#9;&#9;&#9;&#9;C373.612,311.265,362.019,331.004,346.4,346.709z"/>
			<path style="fill:#FAF7F7;" d="M289.12,380.03l22.071,82.651c36.636-9.872,69.412-29.313,95.476-55.498L346.4,346.709&#10;&#9;&#9;&#9;&#9;C330.765,362.429,311.101,374.102,289.12,380.03z"/>
			<path style="fill:#DEDBEE;" d="M132.503,289.204c5.884,22.061,17.478,41.8,33.097,57.505L256,256L132.503,289.204z"/>
			<path style="fill:#C8EFFE;" d="M132.503,222.796c-2.826,10.596-4.342,21.725-4.342,33.204c0,11.479,1.516,22.608,4.342,33.204&#10;&#9;&#9;&#9;&#9;L256,256L132.503,222.796z"/>
			<path style="fill:#DEDBEE;" d="M165.6,165.291c-15.619,15.705-27.212,35.444-33.097,57.505L256,256L165.6,165.291z"/>
			<path style="fill:#C8EFFE;" d="M165.6,346.709c15.635,15.721,35.298,27.393,57.279,33.321L256,256L165.6,346.709z"/>
			<path style="fill:#C8EFFE;" d="M222.879,131.97c-21.981,5.928-41.644,17.6-57.279,33.321L256,256L222.879,131.97z"/>
			<path style="fill:#DEDBEE;" d="M289.121,131.97c-10.568-2.85-21.669-4.379-33.121-4.379c-11.451,0-22.552,1.529-33.121,4.379&#10;&#9;&#9;&#9;&#9;L256,256L289.121,131.97z"/>
			<path style="fill:#DEDBEE;" d="M256,256l123.497-33.204c-5.884-22.061-17.478-41.8-33.097-57.505L256,256z"/>
			<path style="fill:#C8EFFE;" d="M379.497,289.204c2.826-10.596,4.342-21.725,4.342-33.204c0-11.479-1.516-22.608-4.342-33.204&#10;&#9;&#9;&#9;&#9;L256,256L379.497,289.204z"/>
			<path style="fill:#DEDBEE;" d="M222.88,380.03c10.568,2.85,21.669,4.379,33.12,4.379c11.451,0,22.552-1.529,33.12-4.379L256,256&#10;&#9;&#9;&#9;&#9;L222.88,380.03z"/>
			<path style="fill:#C8EFFE;" d="M346.4,165.291c-15.635-15.721-35.298-27.393-57.279-33.321L256,256L346.4,165.291z"/>
			<path style="fill:#DEDBEE;" d="M346.4,346.709c15.619-15.705,27.212-35.444,33.097-57.505L256,256L346.4,346.709z"/>
			<path style="fill:#C8EFFE;" d="M289.12,380.03c21.981-5.928,41.644-17.6,57.279-33.321L256,256L289.12,380.03z"/>
		</g>
		<ellipse style="fill:#FE646F;" cx="256" cy="256" rx="52.089" ry="52.43"/>
		<ellipse style="fill:#FFE177;" cx="256" cy="256" rx="18.469" ry="18.59"/>
	</g>
	<g>
		<path style="fill:none;stroke:#000000;stroke-width:15;stroke-linecap:round;stroke-linejoin:round;stroke-miterlimit:10;" d="&#10;&#9;&#9;&#9;M114.539,52.068C50.418,96.975,8.457,171.562,8.457,256c0,137.243,110.829,248.5,247.543,248.5S503.543,393.243,503.543,256&#10;&#9;&#9;&#9;S392.714,7.5,256,7.5c-41.992,0-81.533,10.51-116.179,29.032"/>
		<path style="fill:none;stroke:#000000;stroke-width:15;stroke-linecap:round;stroke-linejoin:round;stroke-miterlimit:10;" d="&#10;&#9;&#9;&#9;M256,42.028C138.491,42.028,42.89,138.016,42.89,256S138.491,469.972,256,469.972S469.11,373.984,469.11,256&#10;&#9;&#9;&#9;S373.509,42.028,256,42.028z"/>
		<g>
			<path style="fill:none;stroke:#000000;stroke-width:15;stroke-linecap:round;stroke-linejoin:round;stroke-miterlimit:10;" d="&#10;&#9;&#9;&#9;&#9;M50.134,311.35l82.369-22.146c-2.826-10.596-4.342-21.725-4.342-33.204c0-11.479,1.516-22.608,4.342-33.204L50.134,200.65"/>
			<path style="fill:none;stroke:#000000;stroke-width:15;stroke-linecap:round;stroke-linejoin:round;stroke-miterlimit:10;" d="&#10;&#9;&#9;&#9;&#9;M200.809,462.681l22.071-82.651c-21.981-5.928-41.644-17.6-57.279-33.321l-60.268,60.474"/>
			<path style="fill:none;stroke:#000000;stroke-width:15;stroke-linecap:round;stroke-linejoin:round;stroke-miterlimit:10;" d="&#10;&#9;&#9;&#9;&#9;M105.333,104.818l60.268,60.474c15.635-15.721,35.298-27.393,57.279-33.321l-22.071-82.651"/>
			<path style="fill:none;stroke:#000000;stroke-width:15;stroke-linecap:round;stroke-linejoin:round;stroke-miterlimit:10;" d="&#10;&#9;&#9;&#9;&#9;M461.866,200.65l-82.369,22.146c2.826,10.596,4.342,21.725,4.342,33.204c0,11.479-1.516,22.608-4.342,33.204l82.369,22.146"/>
			<path style="fill:none;stroke:#000000;stroke-width:15;stroke-linecap:round;stroke-linejoin:round;stroke-miterlimit:10;" d="&#10;&#9;&#9;&#9;&#9;M311.191,49.319l-22.071,82.651c21.981,5.928,41.644,17.6,57.279,33.321l60.268-60.474"/>
			<path style="fill:none;stroke:#000000;stroke-width:15;stroke-linecap:round;stroke-linejoin:round;stroke-miterlimit:10;" d="&#10;&#9;&#9;&#9;&#9;M360.298,360.655c-4.633-4.649-9.266-9.297-13.899-13.946c-12.874,12.944-28.494,23.103-45.579,29.547C297,378,293,379,289,380&#10;&#9;&#9;&#9;&#9;c7,28,15,55,22.191,82.681"/>
			<path style="fill:none;stroke:#000000;stroke-width:15;stroke-linecap:round;stroke-linejoin:round;stroke-miterlimit:10;" d="&#10;&#9;&#9;&#9;&#9;M406.667,407.182c-5.653-5.672-17.053-17.092-22.706-22.764"/>
			<path style="fill:none;stroke:#000000;stroke-width:15;stroke-linecap:round;stroke-linejoin:round;stroke-miterlimit:10;" d="&#10;&#9;&#9;&#9;&#9;M205.673,269.531l-73.17,19.673c5.884,22.061,17.478,41.8,33.097,57.505l53.528-53.711"/>
			<path style="fill:none;stroke:#000000;stroke-width:15;stroke-linecap:round;stroke-linejoin:round;stroke-miterlimit:10;" d="&#10;&#9;&#9;&#9;&#9;M219.128,219.002L165.6,165.291c-15.619,15.705-27.212,35.444-33.097,57.505l73.169,19.673"/>
			<path style="fill:none;stroke:#000000;stroke-width:15;stroke-linecap:round;stroke-linejoin:round;stroke-miterlimit:10;" d="&#10;&#9;&#9;&#9;&#9;M269.521,205.365l19.599-73.395c-10.568-2.85-21.669-4.379-33.121-4.379c-11.451,0-22.552,1.529-33.121,4.379l19.599,73.395"/>
			<path style="fill:none;stroke:#000000;stroke-width:15;stroke-linecap:round;stroke-linejoin:round;stroke-miterlimit:10;" d="&#10;&#9;&#9;&#9;&#9;M306.327,242.469l73.169-19.673c-5.884-22.061-17.478-41.8-33.097-57.505l-53.528,53.711"/>
			<path style="fill:none;stroke:#000000;stroke-width:15;stroke-linecap:round;stroke-linejoin:round;stroke-miterlimit:10;" d="&#10;&#9;&#9;&#9;&#9;M242.479,306.635L222.88,380.03c10.568,2.85,21.669,4.379,33.12,4.379c11.451,0,22.552-1.529,33.12-4.379l-19.599-73.394"/>
			<path style="fill:none;stroke:#000000;stroke-width:15;stroke-linecap:round;stroke-linejoin:round;stroke-miterlimit:10;" d="&#10;&#9;&#9;&#9;&#9;M346.4,165.291c-15.635-15.721-35.298-27.393-57.279-33.321"/>
			<path style="fill:none;stroke:#000000;stroke-width:15;stroke-linecap:round;stroke-linejoin:round;stroke-miterlimit:10;" d="&#10;&#9;&#9;&#9;&#9;M292.872,292.998l53.527,53.71c15.619-15.705,27.212-35.444,33.097-57.505l-71.407-19.199"/>
		</g>
		
			<ellipse style="fill:none;stroke:#000000;stroke-width:15;stroke-linecap:round;stroke-linejoin:round;stroke-miterlimit:10;" cx="256" cy="256" rx="52.089" ry="52.43"/>
		
			<ellipse style="fill:none;stroke:#000000;stroke-width:15;stroke-linecap:round;stroke-linejoin:round;stroke-miterlimit:10;" cx="256" cy="256" rx="18.469" ry="18.59"/>
	</g>
</g>















</svg>
