<?xml version="1.0" encoding="iso-8859-1"?>
<!-- Generator: Adobe Illustrator 19.0.0, SVG Export Plug-In . SVG Version: 6.00 Build 0)  -->
<svg version="1.1" id="Capa_1" xmlns="http://www.w3.org/2000/svg" xmlns:xlink="http://www.w3.org/1999/xlink" x="0px" y="0px"
	 viewBox="0 0 512 512" style="enable-background:new 0 0 512 512;" xml:space="preserve">
<path style="fill:#BFD2E0;" d="M256,7.5v497c137.243,0,248.5-111.257,248.5-248.5S393.243,7.5,256,7.5z"/>
<path style="fill:#DEF1FF;" d="M464.5,256C464.5,118.757,371.151,7.5,256,7.5C118.757,7.5,7.5,118.757,7.5,256
	c0,61.028,22.013,116.906,58.513,160.16L7.5,504.5l88.56-58.327C139.283,482.563,195.076,504.5,256,504.5
	C371.151,504.5,464.5,393.243,464.5,256z"/>
<path d="M437.02,74.98C388.668,26.629,324.38,0,256,0C193.371,0,133.084,22.87,86.246,64.397c-3.099,2.748-3.384,7.488-0.636,10.587
	c2.747,3.099,7.487,3.385,10.587,0.636C140.289,36.529,197.041,15,256,15c132.888,0,241,108.112,241,241S388.888,497,256,497
	c-56.698,0-111.784-20.088-155.109-56.564c-2.541-2.139-6.183-2.352-8.956-0.526l-57.926,38.15l38.258-57.758
	c1.839-2.776,1.627-6.433-0.521-8.979C35.152,367.96,15,312.799,15,256c0-58.959,21.529-115.711,60.621-159.803
	c2.748-3.1,2.463-7.839-0.636-10.587c-3.1-2.749-7.84-2.463-10.587,0.636C22.87,133.084,0,193.371,0,256
	c0,58.453,20.092,115.273,56.694,160.648l-55.447,83.71c-1.967,2.97-1.573,6.915,0.943,9.438C3.64,511.25,5.563,512,7.502,512
	c1.426,0,2.862-0.406,4.123-1.236l83.94-55.284C140.902,491.969,197.647,512,256,512c68.38,0,132.667-26.629,181.02-74.98
	C485.371,388.668,512,324.38,512,256S485.371,123.333,437.02,74.98z"/>
<circle cx="256" cy="256" r="7.5"/>
<circle cx="301" cy="256" r="7.5"/>
<circle cx="211" cy="256" r="7.5"/>
<g>
</g>
<g>
</g>
<g>
</g>
<g>
</g>
<g>
</g>
<g>
</g>
<g>
</g>
<g>
</g>
<g>
</g>
<g>
</g>
<g>
</g>
<g>
</g>
<g>
</g>
<g>
</g>
<g>
</g>
</svg>
