<svg id="Capa_1" enable-background="new 0 0 512 512" height="512" viewBox="0 0 512 512" width="512" xmlns="http://www.w3.org/2000/svg"><g><g><path d="m504.5 255.997c0 68.621-27.814 130.746-72.784 175.716s-104.673 66.007-173.295 66.007c-137.243 0-240.761-106.303-240.761-243.546 0-68.621 17.654-128.924 62.623-173.894l81.817-28.183 93.9-44.6c68.621 0 130.746 27.814 175.716 72.784l27.192 77.945z" fill="#f3d332"/><g fill="#f9f8f9"><path d="m256 7.497v60c-24.052 0-41.463 28.756-62.633 37.005-24.572 9.574-52.263-.069-70.597 18.265l-42.49-42.49c44.98-44.96 107.1-72.78 175.72-72.78z"/><path d="m431.72 431.717c-36.727 36.71-89.004 49.843-142.793 57.886-12.087 1.807-20.336 14.894-32.927 14.894v-60c28.846 0 53.816-26.108 78.284-37.74 19.615-9.325 39.759-2.344 54.946-17.53z"/><path d="m122.77 389.227-42.49 42.49c-18.518-18.526-18.516-42.48-30.473-66.078-17.072-33.696-42.307-69.284-42.307-109.642h60c0 31.707 23.854 46.401 37.74 72.651 8.875 16.777 4.223 47.272 17.53 60.579z"/></g><path d="m256 479.037v25.46c-68.62 0-130.74-27.82-175.72-72.78l24.96-24.96c39.52 39.53 92.12 65.97 150.76 72.28z" fill="#ecc52e"/><path d="m105.24 406.757-24.96 24.96c-45.795-45.842-72.926-108.76-72.78-175.72h25.46c6.31 58.64 32.75 111.24 72.28 150.76z" fill="#efedef"/><path d="m504.5 255.997h-60c0-24.055-20.498-44.012-28.748-65.183-9.574-24.569-8.19-49.714-26.522-68.047l42.49-42.49c44.96 44.98 72.78 107.1 72.78 175.72z" fill="#f9f8f9"/><circle cx="256" cy="255.997" fill="#f5de46" r="188.5"/><path d="m257.22 389.227c-76.369 0-134.45-56.861-134.45-133.23 0-39.082 11.001-74.434 37.125-99.64 24.924-24.049 58.818-38.86 96.105-38.86 76.369 0 138.5 62.131 138.5 138.5 0 38.878-16.102 74.066-41.987 99.245-24.962 24.282-57.801 33.985-95.293 33.985z" fill="#f9f8f9"/><path d="m360.27 347.067c-25.41 29.05-62.73 47.43-104.27 47.43-76.37 0-138.5-62.13-138.5-138.5 0-44.24 20.85-83.7 53.23-109.07-21.31 24.36-34.23 56.24-34.23 91.07 0 76.37 62.13 138.5 138.5 138.5 32.13 0 61.74-11 85.27-29.43z" fill="#efedef"/><path d="m379.69 471.577c1.74-1 3.46-2.02 5.16-3.06-1.71 1.05-3.43 2.06-5.16 3.06z" fill="#f9f8f9"/><path d="m31.5 228.747c0 9.21.49 18.3 1.46 27.25h-25.46c0-67.94 27.27-129.5 71.45-174.37-29.86 41.38-47.45 92.2-47.45 147.12z" fill="#ecc52e"/><path d="m430.37 433.047c-44.609 44.335-108.626 71.894-174.37 71.45v-25.46c8.95.97 18.04 1.46 27.25 1.46 54.92 0 105.74-17.59 147.12-47.45z" fill="#efedef"/><path d="m40.42 379.687c1 1.74 2.02 3.46 3.06 5.16-1.05-1.71-2.06-3.43-3.06-5.16z" fill="#f9f8f9"/><path d="m331.595 231.59-62.805-62.713-4.855-.74c-5.296-5.288-10.722-4.613-16.018.675l-14.674 16.46-47.904 47.833c-.068.072 0 0-.068.072-3.911 4.421-12.501 15.846-12.491 30.077.018 26.325 19.292 44.53 45.618 44.529 6.285 0 12.27-1.219 17.745-3.429 1.425-.575 2.933.643 2.722 2.165l-3.46 25.958c-.942 6.785 5.063 12.486 11.79 11.195l4.355-.836c4.98-.956 7.013-1.614 11.993-.658l4.355.836c6.727 1.291 9.364.014 8.422-6.771l2.205-8.129-2.639-19.014c-.211-1.522 1.297-2.74 2.721-2.165 5.472 2.208 11.453 3.426 17.736 3.426.304 0 .59-.033.892-.038-.004.005-.007.011-.011.016.899-.017 1.79-.063 2.676-.129 11.903-.749 21.83-5.234 28.874-12.575 9.401-8.712 15.287-21.163 15.287-34.993.003-17.654-8.925-27.54-12.466-31.052z" fill="#f3d332"/><path d="m267.89 347.657-4.35-.84c-4.98-.95-10.1-.95-15.08 0l-4.35.84c-6.73 1.29-12.74-4.41-11.79-11.2l3.79-27.36c.21-1.52-1.29-2.74-2.72-2.16-5.48 2.21-11.46 3.43-17.74 3.43-26.33 0-47.7-22.4-47.71-48.72-.01-14.199 8.403-25.47 12.334-29.911.063-.067.163-.172.226-.239l47.9-47.83 18.01-17.99c5.3-5.29 13.88-5.29 19.17 0l3.21 3.2-75.26 75.05c-2.08 2.41-7.6 9.59-7.59 17.71.01 16.65 13.61 30.73 29.71 30.73 3.81 0 7.52-.72 11-2.12 2.39-.97 4.91-1.46 7.48-1.46 5.78 0 11.27 2.51 15.08 6.88 3.8 4.37 5.53 10.17 4.73 15.91l-1.71 12.3c-.313 2.251 1.452 4.222 3.725 4.22h.045c.58 0 10.57.01 22.52.02l1.16 8.34c.95 6.79-5.06 12.49-11.79 11.2z" fill="#ecc52e"/></g><g><path d="m402 256c0-80.505-65.495-146-146-146s-146 65.495-146 146c0 4.142 3.358 7.5 7.5 7.5s7.5-3.358 7.5-7.5c0-72.233 58.767-131 131-131s131 58.767 131 131-58.767 131-131 131c-60.185 0-112.443-40.767-127.083-99.139-1.008-4.018-5.083-6.456-9.1-5.45-4.018 1.008-6.458 5.082-5.45 9.1 7.772 30.99 25.946 59.052 51.173 79.017 26.015 20.589 57.295 31.472 90.46 31.472 80.505 0 146-65.495 146-146z"/><path d="m437.115 436.922c48.29-48.341 74.885-112.588 74.885-180.922 0-57.009-18.523-111.164-52.698-155.621-6.815-8.868-14.239-17.359-22.278-25.401-.035-.035-.074-.065-.11-.099-48.34-48.287-112.583-74.879-180.914-74.879-34.372 0-67.733 6.7-99.157 19.914-3.341 1.405-5.132 4.948-4.451 8.37.097.489.245.976.446 1.454 1.606 3.819 6.003 5.612 9.821 4.006 23.988-10.125 54.751-17.938 85.842-18.616v45.014c-46.007 1.534-91.529 20.29-125.631 52.122l-31.844-31.844c6.734-6.361 13.854-12.355 21.339-17.935 2.967-2.145 9.166-6.876 20.014-13.405 3.554-2.128 4.71-6.734 2.583-10.288 0 0-.001-.001-.001-.001s0-.001-.001-.001c-2.128-3.554-6.734-4.71-10.288-2.582-16.402 9.903-34.03 22.94-50.151 39.271-15.541 15.624-29.092 33.223-40.184 52.369-22.463 38.774-34.337 83.088-34.337 128.152 0 58.052 19.202 113.15 54.585 158.056 6.293 7.989 13.09 15.662 20.39 22.966.033.033.069.061.103.093 48.341 48.29 112.588 74.885 180.922 74.885 58.052 0 113.15-19.202 158.056-54.585 7.989-6.293 15.662-13.089 22.966-20.39.033-.033.061-.07.093-.103zm-168.599 59.755c-1.549.065-2.059.096-5.016.195v-45.013c20.06-.806 43.882-4.93 67.043-14.584 2.872-1.185 4.615-3.948 4.641-6.871.009-.974-.174-1.967-.569-2.924-1.58-3.829-5.964-5.649-9.794-4.072-21.855 9.019-45.01 13.592-68.821 13.592-99.62.314-181.209-81.879-181-181-.314-99.62 81.879-181.209 181-181 50.671 0 96.537 20.939 129.424 54.607 32.011 32.555 51.621 78.033 51.576 126.393-.007 54.274-24.469 105.7-66.226 139.844-.034-.057-4.702 4.213-15.734 11.591-3.247 2.131-4.298 6.352-2.542 9.724.117.225.246.446.388.663 2.273 3.463 6.922 4.43 10.385 2.156 7.234-4.699 17.333-12.309 25.861-20.239l31.805 31.806c-40.304 37.891-93.606 62.109-152.421 65.132zm-253.193-228.161c-.065-1.549-.096-2.059-.195-5.016h45.013c.075 1.584.197 4.376.459 7.862 3.354 43.386 20.887 83.958 50.356 116.331.014.016.029.031.043.047.422.463.837.932 1.264 1.392l-31.806 31.806c-37.893-40.305-62.111-93.607-65.134-152.422zm107.562 131.205c33.27 30.837 77.222 50.291 125.615 52.121v45.03c-60.797-1.869-115.99-26.362-157.438-65.328zm373.792-156.237c.065 1.549.096 2.059.195 5.016h-45.013c-1.534-46.007-20.29-91.529-52.122-125.631l31.806-31.807c37.893 40.305 62.111 93.607 65.134 152.422zm-107.562-131.205c-33.27-30.837-77.222-50.291-125.615-52.121v-45.03c60.797 1.869 115.99 26.362 157.438 65.328zm10.639 276.868c31.603-34.04 50.294-78.379 52.088-125.647h45.03c-1.869 60.797-26.362 115.99-65.328 157.438zm-319.308-298.095 31.833 31.834c-30.837 33.27-50.291 77.222-52.121 125.615h-45.036c1.867-58.978 25.669-115.034 65.324-157.449z"/><path d="m251.714 170.985c2.362-2.36 6.208-2.359 8.571 0l27.014 26.975c2.931 2.927 7.68 2.924 10.606-.008 2.927-2.931 2.923-7.68-.008-10.606l-27.014-26.975c-8.208-8.195-21.563-8.194-29.769 0l-65.917 65.82c-4.682 5.064-14.478 18.059-14.76 35.461.01 14.757 5.731 28.768 16.109 39.452 10.5 10.809 24.385 16.762 39.1 16.762 4.039 0 7.999-.427 11.856-1.275l-2.615 18.84c-.774 5.576 1.202 11.219 5.284 15.096 4.083 3.876 9.82 5.554 15.349 4.496l4.354-.836c4.065-.78 8.187-.78 12.251 0l4.355.836c1.091.209 2.19.312 3.284.312 4.445 0 8.789-1.697 12.065-4.808 4.082-3.876 6.058-9.52 5.284-15.096l-2.614-18.837c5.647.917 7.863 1.555 15.874 1.106 13.527-.851 25.161-5.935 33.66-14.707 11.143-10.408 17.53-25.101 17.53-40.346.001-14.269-5.078-26.849-14.668-36.363l-14.23-14.209c-2.931-2.927-7.68-2.923-10.606.008-2.927 2.931-2.923 7.68.008 10.606l14.248 14.227c6.706 6.652 10.25 15.55 10.25 25.73 0 11.155-4.697 21.905-12.885 29.493-5.632 6.218-16.528 10.871-27.333 10.727-6.196 0-12.132-1.377-17.641-4.095-2.491-1.228-5.456-.979-7.707.646s-3.421 4.362-3.039 7.112l4.297 30.963c.153 1.107-.407 1.826-.755 2.157-.348.33-1.095.854-2.193.642l-4.355-.836c-5.94-1.14-11.964-1.14-17.905 0l-4.354.836c-1.098.211-1.845-.313-2.193-.642-.348-.331-.908-1.05-.755-2.156l4.298-30.967c.382-2.75-.788-5.487-3.039-7.112s-5.215-1.874-7.707-.646c-5.514 2.719-11.452 4.098-17.651 4.098-21.78 0-40.193-18.878-40.208-41.224-.008-11.736 7.205-21.242 10.398-24.873z"/></g></g></svg>